<?xml version="1.0" encoding="utf-8"?>
<!-- Generator: Adobe Illustrator 23.0.1, SVG Export Plug-In . SVG Version: 6.00 Build 0)  -->
<svg version="1.1" id="Layer_1" xmlns="http://www.w3.org/2000/svg" xmlns:xlink="http://www.w3.org/1999/xlink" x="0px" y="0px"
	 viewBox="0 0 50 30" style="enable-background:new 0 0 50 30;" xml:space="preserve">
<style type="text/css">
	.st0{fill:#00AEEF;}
</style>
<path d="M18.2,7.5c4.8,0,7,3,7,7.6s-2.2,7.6-7,7.6s-7-3-7-7.6C11.2,10.4,13.4,7.5,18.2,7.5z M18.2,19c1.5,0,2.2-1,2.2-4
	s-0.7-4-2.2-4c-1.5,0-2.2,1-2.2,4S16.7,19,18.2,19z"/>
<path d="M30.4,22.2h-0.1c-2.6,0-4.6-2.1-4.6-4.6V2h1.6c1.8,0,3.2,1.4,3.2,3.2V10c0.5-1.5,1.9-2.5,3.9-2.5c3.4,0,5.3,2.6,5.3,7.6
	c0,5-1.9,7.6-5.3,7.6c-2,0-3.4-1.1-3.9-2.5C30.4,20,30.4,22.2,30.4,22.2z M32.6,19c1.5,0,2.2-1,2.2-4s-0.7-4-2.2-4
	c-1.5,0-2.2,1-2.2,4S31.1,19,32.6,19z"/>
<path class="st0" d="M42.4,15.5v6.7l0,0c-2.6,0-4.8-2.1-4.8-4.8V9.7c0-1,0.8-1.9,1.9-1.9h0.5c1.3,0,2.4,1.1,2.4,2.4v0.5
	c0.4-2.2,1.6-3.2,3.6-3.2c0.4,0,0.8,0,1,0.1L47,11.5c-0.3,0-0.6,0-1,0C43.8,11.4,42.4,12.8,42.4,15.5z"/>
<path d="M5.9,23c0,1.4-0.6,2-1.8,2H2.9v1.3c0,1.2,1,2.2,2.2,2.2c0,0,0,0,0,0c3.9,0,5.6-1.8,5.6-5.2V7.8l0,0c-2.6,0-4.8,2.1-4.8,4.8
	V23z"/>
<circle class="st0" cx="8.4" cy="4.3" r="2.3"/>
</svg>
